<svg class="MuiSvgIcon-root MuiSvgIcon-fontSizeMedium mui-b933ss" focusable="false" aria-hidden="true" viewBox="0 0 16 16" fill="none" xmlns="http://www.w3.org/2000/svg" style="width: 27px; height: 27px;"><path d="M0.0361328 16L1.16127 11.8915C0.467259 10.6892 0.102063 9.32521 0.102633 7.92787C0.104386 3.55643 3.66218 0 8.03359 0C10.1552 0.000843333 12.1465 0.82657 13.6438 2.32516C15.1412 3.82374 15.9654 5.81574 15.9645 7.9342C15.9628 12.3056 12.4047 15.8625 8.0337 15.8625H8.03368H8.03043C6.70305 15.862 5.39883 15.5291 4.24045 14.8975L0.0361328 16Z" fill="#3AC34C"/><path fill-rule="evenodd" clip-rule="evenodd" d="M6.05156 4.61359C5.89072 4.22729 5.72734 4.27956 5.6057 4.2735C5.49025 4.26775 5.358 4.26654 5.2259 4.26654C5.09379 4.26654 4.87911 4.31612 4.69746 4.51443C4.51582 4.71275 4.00391 5.19203 4.00391 6.16709C4.00391 7.14216 4.71398 8.08416 4.81307 8.21638C4.91214 8.34861 6.21041 10.3496 8.1983 11.2077C8.67108 11.4118 9.04022 11.5337 9.32799 11.625C9.80274 11.7757 10.2347 11.7545 10.5762 11.7035C10.9569 11.6466 11.7486 11.2242 11.9138 10.7615C12.0789 10.2987 12.0789 9.90209 12.0293 9.81945C11.9798 9.73684 11.8477 9.68725 11.6495 9.58808C11.4514 9.48893 10.4771 9.00965 10.2954 8.94355C10.1138 8.87745 9.9817 8.8444 9.84958 9.04272C9.71749 9.24102 9.33772 9.68725 9.22211 9.81945C9.10653 9.95168 8.99093 9.96821 8.79278 9.86904C8.5946 9.76989 7.95608 9.56069 7.19918 8.88578C6.61009 8.36052 6.21235 7.71173 6.09676 7.51341C5.98117 7.31509 6.08446 7.20786 6.18367 7.10911C6.2728 7.02035 6.38182 6.87773 6.48091 6.76205C6.57999 6.64636 6.61302 6.56372 6.67906 6.43152C6.74512 6.2993 6.71209 6.18362 6.66255 6.08445C6.61302 5.9853 6.21671 5.01022 6.05156 4.61359Z" fill="white"/></svg>